<?xml version="1.0" standalone="no"?>
<!DOCTYPE svg PUBLIC "-//W3C//DTD SVG 20010904//EN"
 "http://www.w3.org/TR/2001/REC-SVG-20010904/DTD/svg10.dtd">
<svg version="1.0" xmlns="http://www.w3.org/2000/svg"
 width="640.000000pt" height="640.000000pt" viewBox="0 0 640.000000 640.000000"
 preserveAspectRatio="xMidYMid meet">
<metadata>
Created by potrace 1.16, written by Peter Selinger 2001-2019
</metadata>
<g transform="translate(0.000000,640.000000) scale(0.100000,-0.100000)"
fill="#000000" stroke="none">
<path d="M4123 5205 c4 -8 2 -17 -3 -20 -6 -4 -10 -36 -10 -72 0 -70 -1 -77
-44 -211 -15 -45 -24 -87 -21 -92 9 -15 25 -12 25 5 0 8 11 40 25 72 14 31 30
85 35 120 4 34 11 67 15 73 10 17 35 11 35 -9 0 -25 47 -73 67 -69 12 2 20 18
26 48 10 49 34 75 54 58 7 -6 10 -15 6 -21 -3 -5 -1 -7 4 -4 24 15 61 -88 40
-110 -4 -3 2 -12 12 -19 13 -10 20 -32 26 -81 4 -37 12 -86 19 -108 l13 -40 6
50 c4 28 5 78 3 113 -1 34 1 62 6 62 4 0 7 10 7 23 -1 16 -2 18 -6 5 -2 -10
-9 -18 -15 -18 -6 0 -8 9 -5 20 3 11 1 20 -4 20 -5 0 -9 6 -9 12 0 32 -45 118
-64 124 -12 3 -31 15 -42 26 -14 13 -24 16 -29 9 -3 -6 -1 -11 4 -11 17 0 13
-37 -5 -44 -10 -4 -15 0 -13 12 3 35 -2 42 -43 63 l-42 21 -18 -22 c-19 -24
-38 -19 -38 11 0 10 -5 19 -11 19 -6 0 -9 -7 -6 -15z"/>
<path d="M4549 4778 c-46 -56 -81 -88 -91 -82 -4 3 -8 -1 -8 -9 0 -8 -9 -22
-20 -32 -11 -10 -17 -21 -15 -25 3 -5 -6 -19 -20 -31 -13 -13 -25 -31 -25 -39
0 -8 -9 -26 -20 -40 -11 -14 -20 -30 -20 -36 0 -15 -75 -94 -89 -94 -8 0 -10
14 -5 50 6 42 4 50 -10 50 -15 0 -17 15 -3 50 15 41 25 106 18 113 -15 15 -46
3 -43 -16 4 -22 -33 -93 -52 -100 -9 -4 -27 5 -43 21 -17 17 -41 29 -60 30
-40 3 -42 -12 -10 -59 32 -47 40 -69 22 -63 -8 3 -17 15 -20 25 -7 20 -53 45
-64 34 -3 -3 0 -15 7 -25 7 -11 12 -27 12 -36 0 -13 -3 -14 -15 -4 -9 8 -15
30 -15 56 0 40 -2 44 -24 44 -22 0 -25 -5 -31 -57 -7 -65 -16 -88 -35 -88 -7
0 -15 7 -17 15 -4 13 -3 13 7 0 9 -12 11 -9 7 18 -2 17 1 32 6 32 6 0 7 3 4 6
-4 4 -13 1 -22 -6 -8 -7 -15 -9 -15 -6 0 18 -60 -31 -66 -53 -6 -20 -8 -22
-11 -8 -7 27 -23 20 -23 -11 0 -26 -22 -55 -45 -60 -5 -1 -12 -23 -15 -48 -3
-32 -11 -50 -24 -58 -25 -15 -51 -40 -64 -61 -6 -13 -8 -2 -4 36 2 30 8 58 13
63 13 14 11 74 -3 82 -8 5 -9 0 -5 -17 5 -17 -3 -44 -25 -88 -33 -67 -47 -69
-29 -4 14 48 14 203 1 223 -7 10 -10 -9 -11 -65 -1 -113 -12 -188 -26 -193 -7
-2 -13 4 -13 13 0 15 -7 16 -57 10 -80 -10 -77 -9 -84 -18 -4 -5 -25 -10 -48
-10 -22 -1 -41 -7 -41 -12 0 -6 -9 -16 -20 -23 -18 -11 -21 -8 -38 26 -13 28
-16 43 -8 55 13 20 1 34 -16 20 -7 -6 -27 -10 -45 -8 -23 2 -33 -2 -36 -14 -3
-12 -6 -10 -14 9 -12 27 -1 50 23 50 8 0 14 7 14 15 0 17 -16 21 -22 5 -1 -5
-13 -7 -25 -4 -15 4 -24 18 -32 51 -9 33 -16 44 -29 41 -14 -3 -17 -17 -19
-88 -1 -50 3 -88 9 -91 6 -4 7 -12 4 -18 -10 -15 -56 -14 -58 2 -2 23 -5 32
-16 60 -7 16 -12 33 -12 38 0 5 -4 9 -10 9 -5 0 -13 0 -17 0 -5 0 -9 -16 -10
-35 -1 -19 1 -35 6 -35 4 0 8 -13 9 -28 0 -15 1 -32 2 -37 5 -23 -1 -35 -17
-35 -14 0 -15 2 -5 9 11 7 11 11 -2 24 -9 8 -16 21 -16 27 0 6 -5 8 -10 5 -6
-4 -8 -15 -5 -26 9 -27 -14 -24 -24 3 -5 13 -10 17 -15 10 -4 -6 -13 -9 -20
-6 -24 9 -30 -18 -9 -35 21 -17 41 -57 23 -46 -6 3 -10 1 -10 -5 0 -6 -4 -8
-10 -5 -10 6 -51 -16 -87 -48 -12 -11 -29 -17 -38 -14 -14 6 -13 9 2 27 10 11
25 20 35 20 9 0 19 4 23 9 3 6 -10 8 -32 5 -21 -2 -31 -1 -23 2 8 4 17 10 20
14 3 4 20 15 38 24 39 20 43 40 5 24 -16 -7 -33 -16 -40 -20 -17 -13 -71 -27
-77 -21 -3 4 -1 12 6 20 7 8 7 17 2 23 -11 10 -64 1 -64 -11 0 -5 -9 -9 -19
-9 -14 0 -18 5 -14 20 4 14 -2 23 -23 32 -35 15 -48 31 -73 83 -10 22 -28 49
-40 59 -21 19 -21 19 -21 -8 0 -15 5 -37 11 -48 8 -15 8 -26 -1 -43 -12 -22
-12 -22 -46 -4 -19 9 -41 22 -48 28 -9 7 -16 7 -24 -1 -9 -9 -12 -9 -12 0 0 7
5 12 10 12 6 0 10 6 10 14 0 7 10 16 22 19 12 4 19 9 16 12 -3 4 -26 1 -49 -6
-24 -7 -48 -12 -52 -11 -5 2 -6 -2 -3 -7 10 -16 -14 -24 -30 -10 -13 10 -8 17
31 42 25 16 44 31 42 33 -7 7 -77 -9 -77 -17 0 -17 -27 -9 -48 14 -12 13 -27
37 -33 55 -13 38 -17 38 -89 12 -124 -47 -143 -61 -129 -98 12 -32 36 -38 67
-15 46 33 52 36 45 17 -4 -12 -3 -15 5 -10 7 4 12 16 12 27 0 12 5 19 13 16 6
-2 10 -13 8 -23 -3 -10 -5 -31 -5 -47 0 -24 -5 -28 -38 -34 -22 -3 -44 -13
-51 -22 -12 -17 -65 -45 -104 -56 -13 -3 -23 -11 -23 -17 0 -6 -11 -8 -25 -6
-17 4 -25 1 -25 -8 0 -8 -11 -14 -25 -14 -18 0 -25 5 -25 20 0 11 6 20 14 20
7 0 19 7 26 15 10 12 9 16 -5 21 -9 4 -20 3 -24 -2 -11 -17 -61 -45 -61 -34 0
5 -5 10 -10 10 -6 0 -9 -3 -9 -7 4 -27 -5 -43 -36 -57 -19 -9 -35 -21 -35 -26
0 -4 -13 -11 -30 -15 -16 -4 -30 -11 -30 -16 0 -6 4 -8 9 -5 5 3 11 -1 15 -9
4 -11 -1 -14 -19 -13 -25 2 -42 29 -30 49 5 7 -7 9 -36 7 -35 -2 -46 -8 -56
-28 -10 -20 -10 -27 1 -35 7 -5 16 -23 20 -38 6 -25 4 -28 -16 -26 -33 3 -58
-10 -58 -32 0 -16 -47 -51 -66 -49 -4 1 -12 -9 -18 -22 -8 -15 -21 -23 -39
-23 -19 0 -36 -11 -57 -37 -18 -21 -40 -38 -51 -38 -10 0 -28 -9 -39 -20 -11
-11 -24 -20 -28 -20 -15 0 -130 -125 -147 -160 -10 -19 -24 -39 -31 -43 -8 -4
-14 -18 -14 -30 0 -34 -15 -50 -38 -43 -18 6 -23 1 -32 -36 -12 -43 -53 -88
-80 -88 -17 0 -40 -19 -40 -33 0 -5 7 -1 15 7 21 20 58 0 49 -26 -3 -10 -1
-18 5 -18 6 0 11 5 11 11 0 8 5 7 15 -1 13 -10 19 -10 35 5 11 10 20 14 20 9
-1 -11 -29 -50 -35 -47 -3 1 -10 1 -17 -1 -7 -3 -25 -7 -40 -10 -16 -4 -28
-10 -28 -16 0 -5 12 -10 28 -12 23 -3 27 -7 25 -33 -1 -16 -7 -31 -13 -33 -5
-2 -10 -12 -10 -23 0 -14 7 -19 25 -19 25 0 57 -27 88 -73 22 -33 22 -33 -5
-41 -22 -7 -22 -7 -3 -16 l20 -8 -20 -7 c-11 -4 -29 -11 -40 -16 -11 -4 -33
-10 -50 -11 -16 -2 -30 -8 -30 -14 0 -19 -33 -44 -58 -44 -14 0 -30 -7 -37
-15 -11 -13 -10 -18 6 -30 10 -8 27 -15 37 -15 22 0 22 -9 0 -26 -16 -12 -15
-13 11 -14 16 0 48 8 70 19 46 21 123 41 159 41 14 0 30 7 37 15 10 12 10 15
-4 15 -9 0 -16 4 -16 8 0 16 48 35 75 30 16 -4 28 0 34 9 5 10 15 13 30 8 31
-9 27 -35 -6 -36 l-28 -1 28 -7 c66 -15 131 -102 75 -100 -13 0 -17 3 -10 6 6
2 12 9 12 15 0 13 -40 0 -64 -21 -10 -9 -27 -15 -38 -13 -11 2 -37 -8 -58 -22
-36 -23 -38 -24 -35 -6 2 11 0 22 -6 25 -10 7 -12 -2 -13 -109 -1 -47 -5 -81
-12 -83 -6 -2 -23 8 -38 22 -28 26 -50 26 -39 0 4 -11 1 -13 -11 -9 -9 3 -16
1 -16 -5 0 -6 6 -11 14 -11 8 0 25 -15 37 -32 28 -40 38 -48 56 -41 12 5 18
-13 14 -44 -1 -7 8 -29 19 -50 13 -24 20 -31 20 -19 0 15 3 16 14 6 8 -6 12
-18 9 -26 -3 -9 2 -14 15 -14 12 0 24 -5 27 -10 4 -6 12 -7 18 -4 8 5 8 3 0
-7 -19 -20 -16 -31 7 -24 14 5 20 2 20 -10 0 -9 5 -13 10 -10 6 3 10 -2 10
-12 0 -11 5 -24 12 -31 9 -9 6 -12 -15 -12 -15 0 -27 -5 -27 -11 0 -6 14 -9
32 -7 27 2 38 -3 61 -28 15 -18 27 -36 27 -40 0 -5 23 -29 50 -53 28 -25 50
-48 50 -53 0 -4 -12 -8 -27 -9 -27 -1 -26 -1 5 -9 18 -4 42 -16 54 -26 43 -38
58 -54 58 -64 0 -5 5 -10 12 -10 6 0 9 -2 6 -5 -3 -3 -18 -1 -33 5 -24 9 -26
9 -16 -4 7 -9 23 -18 34 -22 12 -4 32 -16 44 -28 12 -12 32 -31 45 -44 13 -12
28 -22 34 -22 5 0 44 -34 87 -75 43 -41 82 -75 87 -75 5 0 17 -14 27 -30 10
-17 43 -47 73 -67 30 -20 71 -47 90 -60 19 -12 50 -36 67 -53 18 -17 33 -26
33 -20 0 6 6 7 17 1 90 -46 127 -60 148 -55 21 5 43 -2 130 -41 28 -13 82 -22
178 -30 53 -5 437 23 467 34 38 14 127 23 320 31 184 8 240 16 240 32 0 11
-15 8 -66 -13 -33 -13 -70 -6 -59 11 3 5 17 10 31 10 13 0 24 5 24 10 0 6 -30
11 -67 12 -87 1 -90 2 -99 11 -4 4 -17 7 -30 7 -12 0 -37 8 -56 17 -18 9 -40
20 -48 24 -8 3 -13 15 -12 25 2 11 1 16 -3 12 -4 -4 -14 0 -23 8 -10 11 -25
14 -47 10 -29 -6 -33 -3 -39 19 -4 15 -13 25 -25 25 -14 0 -17 7 -16 31 1 17
-4 56 -11 88 -8 31 -11 65 -9 76 3 11 2 14 -1 8 -3 -7 -14 -13 -23 -13 -15 0
-19 -11 -23 -71 -7 -93 -24 -110 -33 -35 -4 31 -5 81 -3 111 3 38 1 56 -8 59
-14 5 -19 -20 -30 -142 -3 -39 -9 -74 -13 -76 -14 -8 -71 7 -71 20 0 8 -6 11
-15 8 -11 -5 -15 1 -15 24 0 17 -4 33 -9 36 -4 3 -6 58 -4 123 5 140 -11 146
-21 8 -9 -120 -9 -125 -17 -125 -3 0 -11 11 -17 25 -12 26 -32 34 -32 12 0 -7
-7 -22 -15 -33 -14 -19 -15 -19 -21 3 -3 13 -10 23 -16 23 -5 0 3 12 17 27 32
36 35 65 3 36 -13 -11 -31 -23 -40 -26 -13 -5 -17 -15 -14 -37 3 -25 -1 -31
-20 -36 -19 -5 -21 -9 -14 -30 13 -33 2 -56 -24 -52 -17 2 -20 9 -18 31 3 25
0 28 -20 25 -15 -2 -24 -11 -26 -25 -3 -18 -7 -21 -20 -14 -9 5 -21 9 -27 9
-5 1 -11 8 -13 17 -3 12 2 14 22 9 19 -4 26 -2 26 9 0 10 -8 13 -25 9 -18 -3
-27 1 -31 14 -4 11 -13 26 -21 35 -12 14 -12 17 2 22 19 8 20 47 0 47 -23 0
-18 14 10 26 15 7 25 8 27 2 2 -5 3 12 3 39 -1 26 -5 48 -11 48 -5 -1 -22 13
-37 30 -23 25 -29 28 -37 15 -13 -19 -13 -40 0 -40 9 0 9 -4 -4 -44 -6 -17 -8
-17 -29 8 -31 36 -47 33 -47 -10 0 -28 -3 -35 -17 -32 -10 2 -19 14 -21 26 -2
13 -9 21 -15 19 -7 -2 -27 10 -45 28 l-33 31 30 77 c34 86 38 117 16 117 -11
0 -13 8 -8 30 6 34 -12 42 -22 10 -3 -11 -13 -20 -21 -20 -12 0 -12 -4 -4 -20
6 -12 8 -30 5 -40 -7 -22 -35 -28 -35 -7 0 8 -3 7 -10 -3 -6 -9 -5 -17 2 -21
11 -7 2 -49 -12 -49 -24 0 -16 66 17 137 17 38 10 82 -9 50 -5 -10 -7 -25 -4
-32 3 -8 -6 -27 -19 -41 -14 -15 -25 -36 -25 -46 0 -11 -5 -16 -10 -13 -5 3
-10 17 -10 31 0 21 -10 29 -33 25 -4 -1 -10 6 -13 14 -4 8 -12 15 -19 15 -7 0
-15 6 -18 13 -2 6 -8 8 -13 4 -4 -4 -3 -16 3 -26 13 -21 -3 -95 -19 -85 -4 3
-3 14 2 25 9 16 7 19 -9 19 -21 0 -23 -5 -42 -95 -7 -33 -16 -64 -21 -69 -4
-6 -8 -29 -8 -51 0 -26 -5 -42 -12 -42 -7 0 -20 -4 -29 -7 -13 -6 -18 1 -23
28 -8 42 -2 82 29 191 31 109 43 133 87 180 21 22 38 44 38 49 0 4 16 5 35 2
31 -6 36 -4 50 23 8 17 16 39 18 51 2 12 11 30 20 41 9 10 17 23 17 27 0 5 7
17 15 28 13 16 13 13 -1 -20 -8 -21 -13 -41 -10 -44 3 -2 9 4 13 14 14 39 49
40 37 1 -4 -12 -16 -35 -26 -50 -26 -36 -18 -43 22 -22 22 11 30 21 26 32 -8
19 75 103 102 103 9 0 35 10 57 22 31 16 55 21 109 19 38 -1 72 -4 75 -6 2 -3
-10 -21 -28 -39 -26 -27 -45 -36 -84 -41 -68 -10 -96 -35 -30 -27 l45 5 -16
-31 c-23 -44 -20 -46 17 -8 48 47 78 64 112 60 17 -1 36 -3 44 -3 7 -1 11 -7
7 -16 -8 -22 17 -18 32 5 16 26 65 28 60 3 -2 -10 -9 -19 -16 -19 -6 -1 -16
-2 -22 -3 -16 -2 -12 -51 5 -57 8 -4 21 -1 28 5 10 8 17 7 26 -2 9 -9 14 -9
21 3 6 10 7 1 3 -25 -8 -46 -8 -43 -4 -190 3 -109 4 -109 13 -50 5 33 7 76 4
95 -5 32 -3 37 27 49 17 8 44 28 59 45 15 17 27 25 28 18 0 -8 9 -3 23 11 12
13 28 22 35 19 17 -5 43 28 36 49 -2 9 2 22 11 29 8 7 15 9 15 5 0 -4 7 -2 15
5 9 7 26 9 45 5 28 -6 29 -8 14 -19 -10 -8 -18 -32 -22 -64 -5 -59 9 -70 26
-19 l10 32 2 -35 c2 -19 2 -57 0 -84 -1 -36 1 -46 10 -41 8 5 11 26 8 62 -3
29 -1 56 3 59 4 2 3 19 -2 36 -13 48 9 78 53 69 25 -6 32 -12 31 -27 -1 -10
-4 -39 -6 -64 -3 -25 -8 -58 -12 -74 -10 -36 23 -176 42 -176 7 0 13 9 13 20
0 11 4 20 10 20 6 0 8 -25 4 -65 -5 -55 -3 -65 10 -65 10 0 16 9 16 24 0 14 5
28 11 32 8 4 9 -1 3 -17 -10 -34 -6 -145 8 -201 20 -79 31 -56 23 47 -7 95 2
216 14 183 8 -24 6 -230 -4 -302 -6 -48 -5 -58 6 -54 9 3 13 17 11 39 -2 19 4
68 12 109 8 41 16 98 16 125 0 48 -8 265 -12 295 -3 25 14 80 24 80 6 0 7 -7
4 -16 -4 -9 0 -24 9 -33 10 -12 14 -33 11 -69 -1 -29 1 -55 6 -58 4 -3 8 -10
8 -15 0 -6 -5 -7 -10 -4 -6 3 -12 0 -15 -7 -9 -29 -10 -47 0 -47 5 -1 10 7 10
16 0 10 9 19 19 21 14 3 17 0 13 -12 -3 -8 0 -28 8 -43 8 -15 15 -36 15 -45 0
-10 5 -18 10 -18 6 0 10 -8 10 -19 0 -10 12 -26 26 -36 25 -16 25 -16 15 4
-13 24 -14 61 -2 61 5 0 11 -10 13 -22 5 -36 30 -27 45 17 13 37 12 40 -8 56
-23 17 -18 39 9 39 13 0 12 3 -6 16 -26 18 -28 30 -7 32 8 1 22 3 30 4 8 1 15
8 15 15 0 8 4 12 9 8 5 -3 9 -24 9 -48 -2 -54 10 -117 22 -117 6 0 10 10 11
23 0 12 2 36 3 52 2 17 0 35 -3 40 -9 16 -9 135 1 129 5 -3 15 -1 23 6 9 7 15
8 20 0 3 -5 11 -10 16 -10 10 0 7 32 -7 83 -7 22 19 23 37 1 11 -14 14 -13 29
5 8 12 29 24 45 27 17 2 37 7 45 9 10 3 24 -10 40 -41 14 -25 33 -50 43 -55
20 -11 23 -35 5 -41 -7 -3 -6 -7 5 -11 14 -5 17 -1 17 22 0 17 -7 31 -15 35
-8 3 -15 9 -14 13 3 21 -2 33 -15 33 -16 0 -27 58 -12 63 6 3 19 0 29 -5 13
-6 17 -5 17 7 0 11 6 15 19 10 10 -3 24 1 31 10 14 16 46 20 52 6 2 -5 10 1
19 13 l17 22 -57 -7 c-31 -4 -74 -12 -96 -17 -36 -10 -38 -9 -20 4 10 8 24 13
30 11 5 -2 16 2 23 10 7 7 22 13 32 13 10 0 21 4 25 9 3 6 39 15 80 22 88 15
105 39 28 39 -43 0 -45 1 -28 14 18 13 13 15 -48 21 -36 4 -73 5 -81 2 -8 -3
-17 -1 -20 6 -3 8 -10 5 -21 -8 -12 -15 -18 -17 -23 -8 -5 7 -29 13 -58 13
-80 0 -158 7 -176 15 -11 4 -18 3 -18 -3 0 -6 -9 -10 -20 -9 -11 1 -20 5 -20
10 0 5 -7 4 -15 -3 -8 -6 -19 -9 -24 -6 -5 4 -12 2 -16 -4 -3 -5 -14 -10 -25
-10 -10 0 -21 -7 -24 -16 -6 -15 -8 -15 -24 -2 -18 16 -64 17 -232 3 -52 -4
-82 -2 -99 7 -19 10 -25 10 -28 1 -3 -7 -11 -13 -20 -13 -8 0 -31 -7 -50 -16
-23 -12 -37 -14 -44 -7 -7 7 -44 9 -95 5 -57 -3 -92 -1 -108 7 -12 7 -26 11
-32 10 -5 -1 -35 -1 -67 0 -41 1 -56 4 -51 12 5 9 -1 10 -22 4 -16 -4 -74 -9
-129 -11 -55 -3 -113 -6 -130 -8 -16 -1 -52 -4 -78 -4 -35 -2 -46 -5 -41 -14
4 -7 -5 -2 -19 11 -32 29 -27 41 19 41 19 0 34 4 34 9 0 11 -84 24 -108 17
-41 -12 -114 -15 -139 -5 -16 6 -90 11 -167 11 -96 0 -146 5 -164 14 -17 9
-30 10 -36 4 -14 -14 -43 -13 -48 1 -2 7 -17 12 -33 13 -32 1 -45 22 -18 29
12 3 9 5 -8 6 -15 0 -30 8 -33 16 -3 9 -19 21 -35 26 -21 8 -33 21 -41 45 -10
29 -14 33 -27 23 -12 -10 -16 -10 -24 2 -15 24 -10 86 8 105 13 13 15 18 5 22
-23 7 32 48 64 47 16 -1 37 0 48 3 40 11 -11 21 -63 13 -28 -4 -54 -4 -57 0
-3 5 -2 10 3 11 4 0 13 2 18 3 6 1 25 5 43 9 20 5 44 3 61 -4 23 -9 27 -16 23
-37 -4 -22 -2 -25 12 -20 10 4 22 7 27 7 5 0 9 7 9 15 0 10 10 15 27 15 25 0
26 0 8 -20 -10 -11 -24 -20 -32 -20 -8 0 -11 -5 -7 -11 4 -6 20 -8 39 -5 l32
6 6 -115 c5 -84 11 -124 24 -145 9 -17 21 -30 25 -30 9 0 7 11 -15 100 -7 30
-12 85 -11 123 1 37 -2 70 -8 73 -5 3 -4 11 3 20 6 7 15 11 20 8 5 -3 9 4 9
15 0 11 5 23 10 26 18 11 10 23 -20 30 -34 8 -61 42 -64 80 0 14 -6 25 -12 25
-6 0 -9 13 -6 30 2 17 8 30 13 30 5 0 6 6 4 13 -2 6 16 28 41 46 40 30 44 36
28 42 -15 6 -14 8 9 8 18 1 27 -4 27 -14 0 -8 -4 -15 -10 -15 -5 0 -10 -7 -10
-15 0 -8 -7 -15 -15 -15 -8 0 -15 -4 -15 -10 0 -5 6 -10 14 -10 25 0 46 12 46
26 0 8 9 15 20 16 11 0 26 1 33 2 6 1 14 3 17 6 14 15 91 42 104 37 10 -4 13
-1 10 7 -3 9 7 18 27 25 49 17 69 14 69 -10 0 -18 -5 -20 -27 -16 -33 6 -53
-1 -53 -19 0 -10 -14 -14 -47 -14 -52 0 -98 -19 -53 -21 34 -2 31 -2 67 6 26
5 33 3 33 -9 0 -9 5 -16 10 -16 6 0 10 5 10 10 0 6 7 10 16 10 8 0 12 5 9 10
-4 6 -11 7 -17 4 -6 -4 -9 -1 -6 6 2 8 10 16 18 18 8 3 10 0 5 -8 -6 -10 -3
-12 10 -6 11 4 22 2 27 -6 12 -19 10 -166 -2 -173 -8 -5 -8 -11 -1 -19 19 -23
-43 -48 -112 -46 -34 2 -96 2 -137 1 -63 -2 -70 -4 -45 -12 17 -5 50 -9 75 -8
66 1 70 0 64 -16 -4 -9 -19 -15 -39 -15 -19 0 -37 -5 -41 -12 -5 -8 5 -9 36
-4 24 4 47 9 52 13 6 3 30 6 55 7 26 1 48 8 54 16 7 11 12 11 15 3 4 -8 15 -8
41 -1 19 5 46 7 58 4 14 -4 26 -1 29 7 3 6 5 0 3 -15 -4 -24 -1 -27 54 -37 32
-7 69 -9 83 -5 15 3 32 2 39 -3 6 -5 25 -10 41 -11 35 -2 49 -12 17 -12 -20 0
-21 -2 -8 -15 13 -13 19 -13 43 0 16 8 38 12 51 9 18 -5 25 -1 31 17 9 22 9
22 14 1 5 -19 9 -20 43 -11 21 6 47 8 59 5 12 -3 32 1 43 9 17 12 22 12 26 2
6 -15 77 -22 77 -8 0 5 -6 12 -12 14 -8 3 -6 6 4 6 9 1 21 -6 26 -15 7 -13 23
-16 63 -16 30 1 59 -2 64 -6 19 -13 45 -61 45 -82 0 -11 5 -20 10 -20 6 0 10
10 10 23 0 13 5 28 11 34 9 9 7 10 -10 6 -11 -3 -21 -1 -21 4 0 13 66 83 78
83 11 0 46 50 47 65 0 6 7 10 15 10 8 0 16 8 18 18 2 11 -3 17 -16 17 -26 0
-86 -26 -100 -43 -7 -8 -36 -18 -65 -22 -28 -3 -72 -9 -97 -13 -54 -8 -239 -6
-332 3 -47 5 -68 4 -68 -4 0 -6 -9 -11 -20 -11 -11 0 -20 4 -20 9 0 5 -15 10
-32 11 -18 0 -49 2 -68 3 -19 1 -49 -1 -67 -5 -28 -6 -33 -4 -46 25 -9 18 -29
45 -46 61 -20 20 -31 40 -32 60 -1 17 -3 23 -6 14 -2 -10 -9 -18 -14 -18 -6 0
-8 53 -7 132 l3 132 60 25 c33 14 63 30 66 35 4 5 12 -1 18 -13 7 -13 17 -19
24 -14 6 4 20 8 30 8 10 1 22 7 25 12 10 16 84 44 99 39 7 -3 29 3 49 14 22
13 44 18 59 14 35 -9 55 7 24 19 -21 9 -22 11 -5 14 10 3 23 0 28 -5 6 -6 19
-5 37 4 15 8 42 17 59 20 26 5 32 3 32 -10 0 -10 -5 -26 -10 -36 -8 -14 -6
-29 5 -55 8 -20 14 -39 13 -43 -6 -24 18 -76 47 -101 67 -58 165 -50 248 20
47 40 66 80 68 144 1 17 3 22 6 13 2 -10 11 -18 19 -18 8 0 14 -3 14 -7 7
-154 14 -241 21 -253 7 -13 10 33 12 258 1 19 6 32 14 32 7 0 13 -6 13 -14 0
-20 40 -8 41 13 0 12 2 12 8 -3 5 -13 10 -16 15 -8 3 6 13 9 20 6 7 -3 16 3
20 13 3 10 9 24 12 31 3 7 -1 12 -10 12 -9 0 -16 8 -16 18 0 28 11 34 26 14
12 -15 13 -15 14 -1 0 9 7 19 15 23 8 3 15 13 15 21 0 10 -4 13 -12 8 -25 -15
-35 -11 -30 14 3 14 15 28 28 33 13 5 24 14 24 19 0 5 15 11 33 13 48 7 57 11
85 36 14 12 31 22 39 22 15 0 62 28 78 46 14 16 57 25 73 15 9 -5 12 -22 9
-47 -6 -56 -15 -72 -46 -79 -30 -6 -76 -51 -90 -87 -9 -24 -15 -83 -12 -128 1
-35 47 -103 82 -124 76 -45 212 -1 255 84 13 25 23 56 24 70 0 26 -18 84 -34
109 -15 23 -14 183 1 188 15 6 7 73 -9 84 -5 3 -1 10 9 14 38 15 118 33 126
28 4 -2 34 -4 66 -4 42 0 61 -4 65 -14 3 -9 12 -12 22 -8 14 5 15 3 4 -16 -9
-18 -18 -22 -38 -18 -37 7 -56 -2 -41 -19 9 -12 3 -14 -35 -14 -25 0 -46 -4
-46 -10 0 -9 12 -12 68 -14 10 -1 21 -14 28 -36 l12 -35 7 28 c8 30 30 37 33
10 8 -73 15 -102 23 -97 5 3 9 23 9 45 0 40 13 52 24 23 3 -9 6 -33 6 -55 0
-32 3 -39 20 -39 11 0 20 -3 21 -7 5 -78 11 -184 11 -205 -2 -42 13 -33 16 9
1 21 6 41 11 46 5 5 6 28 3 53 -3 25 0 44 5 44 6 0 18 34 28 75 9 41 21 75 26
75 5 0 9 7 9 16 0 8 5 12 10 9 6 -4 8 -10 5 -15 -7 -11 5 -40 17 -40 5 0 6 5
3 10 -4 6 -2 17 5 25 7 9 8 15 0 20 -15 9 -12 25 5 25 8 0 15 5 15 11 0 5 4 8
9 4 5 -3 12 -1 16 5 3 5 17 10 31 10 13 0 24 4 24 10 0 5 -23 8 -55 5 -38 -3
-55 0 -56 8 -5 55 19 82 59 64 52 -22 85 -49 71 -58 -8 -4 -10 -11 -6 -15 4
-4 13 -2 19 4 16 16 71 16 66 0 -3 -7 -15 -15 -29 -18 -22 -5 -22 -7 -5 -13
10 -4 24 -3 30 2 14 11 128 13 121 2 -5 -9 40 -51 55 -51 6 0 10 -6 10 -13 0
-8 12 -20 26 -27 36 -20 51 -50 30 -62 -12 -7 -14 -14 -6 -27 5 -10 6 -21 3
-25 -4 -4 3 -9 15 -13 23 -6 28 -18 12 -28 -6 -3 -18 7 -28 24 -9 17 -20 31
-24 31 -5 0 -8 7 -8 16 0 14 -3 14 -15 4 -21 -18 -20 -21 30 -73 41 -43 51
-77 23 -77 -6 0 -6 -5 1 -14 14 -17 8 -266 -7 -306 -13 -33 -76 -108 -115
-137 -17 -13 -45 -23 -63 -23 -18 0 -36 -5 -40 -11 -5 -9 1 -10 20 -5 18 4 25
3 24 -6 -2 -8 8 -13 27 -13 34 -1 82 -22 88 -39 3 -7 11 -53 18 -103 12 -88
12 -91 -9 -118 -21 -26 -64 -55 -82 -55 -4 0 -29 -10 -56 -22 -27 -12 -58 -21
-69 -19 -11 2 -17 0 -13 -5 11 -10 -51 -46 -69 -40 -8 3 -11 1 -8 -4 4 -6 -7
-10 -27 -10 -18 1 -50 1 -70 0 -35 -1 -36 -2 -20 -18 15 -16 20 -16 45 -4 21
11 32 11 40 3 8 -8 15 -7 26 3 24 21 91 -7 91 -38 -1 -20 -2 -20 -14 -3 -8 10
-26 17 -42 16 -16 0 -23 -3 -16 -6 19 -8 14 -22 -7 -18 -14 3 -18 -1 -14 -11
6 -16 -22 -20 -32 -4 -3 6 -11 10 -16 10 -6 0 -8 -4 -5 -9 3 -5 -20 -12 -52
-16 -31 -4 -61 -12 -65 -19 -6 -8 -10 -8 -13 1 -3 7 -12 9 -20 6 -7 -3 -12 -9
-9 -13 3 -4 -4 -10 -15 -13 -11 -3 -20 -10 -20 -16 0 -6 7 -8 15 -5 12 5 15
-2 15 -29 0 -42 20 -61 58 -55 26 4 28 2 24 -23 -2 -15 -10 -30 -16 -32 -9 -4
-11 2 -9 17 4 17 0 22 -16 22 -15 0 -20 -5 -16 -18 3 -10 8 -27 11 -39 3 -12
11 -18 20 -15 10 4 12 -2 7 -26 -4 -18 -2 -29 3 -25 17 10 50 -56 69 -136 11
-42 23 -77 27 -77 4 0 8 -9 8 -20 0 -12 6 -33 14 -49 8 -15 13 -45 11 -67 -1
-21 1 -41 5 -44 4 -3 10 -22 14 -44 5 -28 4 -37 -5 -34 -16 5 -51 127 -43 150
4 13 1 16 -10 12 -11 -4 -17 3 -22 23 -4 15 -15 41 -25 57 -10 16 -16 33 -13
38 3 4 -15 32 -40 60 -25 29 -46 60 -46 69 0 9 -11 33 -25 53 -14 21 -25 43
-24 49 4 30 -3 43 -32 60 -20 11 -29 13 -27 5 3 -7 -2 -19 -9 -27 -11 -11 -12
-16 -2 -21 7 -5 9 -18 6 -30 -4 -16 -2 -20 9 -16 8 3 14 -1 14 -8 0 -8 -6 -16
-12 -19 -7 -2 -9 -8 -5 -13 4 -5 12 -2 16 5 13 21 48 -3 60 -42 6 -18 25 -47
41 -65 17 -18 30 -42 30 -53 0 -11 9 -32 19 -47 11 -15 23 -47 26 -72 4 -25
11 -48 17 -51 6 -4 4 -9 -5 -12 -9 -3 -13 -14 -10 -31 3 -14 10 -23 15 -20 6
4 14 0 19 -7 14 -22 11 -29 -8 -22 -17 6 -17 5 -2 -13 9 -10 20 -29 24 -42 3
-12 10 -20 15 -17 11 7 18 -20 23 -82 4 -40 1 -44 -30 -63 -38 -22 -83 -27
-83 -7 0 6 -5 4 -11 -5 -5 -10 -15 -18 -21 -18 -7 0 -6 5 2 15 7 9 8 15 2 15
-5 0 -8 9 -5 20 3 12 0 20 -6 20 -7 0 -9 5 -6 10 3 6 1 10 -4 10 -6 0 -11 -4
-11 -10 0 -5 -7 -10 -15 -10 -8 0 -15 7 -15 15 0 8 5 15 10 15 6 0 5 8 -2 19
-9 15 -9 23 2 35 7 9 11 19 8 21 -11 12 -35 -8 -50 -40 -13 -29 -13 -35 -2
-35 8 0 14 -4 14 -10 0 -19 2 -25 12 -37 5 -7 7 -25 3 -41 -4 -20 -1 -33 10
-42 13 -11 13 -15 3 -21 -21 -14 -27 -10 -21 11 3 11 0 20 -6 20 -15 0 -14 33
1 48 7 7 8 12 4 12 -11 0 -56 -48 -56 -61 0 -13 17 -11 23 4 3 6 3 -5 1 -25
-2 -24 2 -42 12 -53 17 -17 34 -12 34 11 0 19 10 18 26 -3 13 -17 13 -17 14 0
0 9 6 17 14 17 8 0 16 4 18 10 2 5 22 11 45 13 23 1 46 7 50 11 4 5 2 6 -5 2
-12 -7 -30 20 -20 30 12 11 58 -17 58 -36 0 -20 -15 -25 -67 -20 -13 1 -23 -3
-23 -9 0 -6 5 -11 10 -11 6 0 10 -5 10 -10 0 -7 -14 -9 -37 -5 -29 4 -33 3
-17 -4 29 -13 83 -18 83 -8 0 12 34 36 43 31 4 -3 17 0 27 6 11 6 34 12 51 14
25 3 30 0 30 -17 0 -18 3 -17 26 9 16 16 37 28 53 29 17 0 29 8 36 23 6 14 18
22 35 22 19 0 22 2 10 10 -12 7 -11 9 6 8 16 -2 20 -7 16 -23 -6 -23 6 -15 22
16 6 12 14 20 18 18 4 -2 15 6 23 19 20 28 34 21 28 -15 -3 -25 -2 -26 6 -6 5
12 19 24 30 28 12 3 21 10 21 15 0 4 10 10 23 14 13 3 29 17 35 31 6 14 20 25
29 26 10 0 34 20 53 44 19 24 41 44 48 44 6 1 12 5 12 10 0 4 26 36 58 71 31
35 64 75 73 90 9 15 29 36 43 47 25 20 34 47 19 56 -5 2 -2 2 5 0 11 -2 82 61
82 74 0 2 9 24 20 49 16 35 27 46 51 51 21 4 31 13 35 32 3 14 10 34 15 44 7
13 7 23 -2 33 -19 23 -36 16 -36 -16 0 -36 -21 -80 -40 -80 -19 0 -16 14 7 35
22 20 27 61 8 68 -8 3 -6 6 5 6 10 1 17 9 17 21 0 11 7 20 15 20 9 0 27 7 41
16 13 9 28 14 32 10 3 -4 2 -10 -4 -14 -15 -10 -28 -52 -15 -52 14 0 50 62 57
99 4 17 10 31 14 31 4 0 11 11 14 26 4 14 20 43 36 65 16 23 32 61 36 87 7 46
55 109 75 97 5 -4 9 2 9 12 1 17 2 17 15 -1 14 -19 15 -18 15 16 0 20 -6 38
-12 40 -9 3 -8 11 4 30 13 20 23 25 40 20 21 -5 22 -4 9 11 -8 11 -28 17 -52
17 -25 0 -41 6 -47 17 -9 14 -11 14 -22 -6 -11 -22 -12 -22 -25 -4 -15 19 -20
54 -7 51 4 -1 19 2 34 6 25 7 26 10 15 34 -6 15 -17 32 -24 38 -10 9 -3 16 36
33 27 11 56 21 65 21 8 0 18 5 21 10 3 6 12 10 20 10 18 0 76 58 65 65 -5 3
-21 3 -36 -1 -17 -4 -29 -2 -36 7 -7 11 -11 11 -15 2 -5 -15 -69 -18 -78 -4
-3 5 4 12 15 16 11 3 20 11 20 16 0 5 6 9 14 9 7 0 19 7 26 15 10 12 9 16 -4
21 -10 4 -14 13 -11 24 4 13 -1 20 -20 27 l-26 8 26 29 c15 16 23 32 18 35
-10 7 -10 32 -1 47 7 11 -12 64 -22 64 -3 0 -7 17 -8 38 -2 20 -7 39 -12 40
-6 2 -10 10 -10 18 0 8 -6 14 -14 14 -13 0 -33 53 -28 72 1 4 -12 5 -28 1 -36
-7 -40 9 -5 25 28 13 35 38 8 27 -10 -3 -31 -9 -48 -12 -38 -7 -85 -31 -85
-42 0 -5 -10 -11 -22 -15 -18 -5 -20 -8 -9 -15 8 -5 19 -7 25 -5 20 7 38 -13
40 -46 1 -26 -6 -41 -32 -66 -19 -18 -48 -36 -64 -39 -20 -5 -26 -10 -18 -15
8 -5 -3 -10 -29 -15 -25 -4 -41 -12 -41 -21 0 -8 -7 -14 -15 -14 -8 0 -15 -4
-15 -10 0 -5 -7 -7 -15 -4 -8 4 -21 2 -28 -4 -22 -19 -123 -18 -142 1 -9 10
-20 15 -25 12 -7 -5 -20 17 -20 34 0 12 93 10 107 -1 9 -7 18 -5 29 6 12 12
20 14 29 6 9 -8 15 -8 20 0 3 5 15 10 26 10 10 0 19 4 19 10 0 5 -12 8 -27 6
-16 -2 -20 -1 -10 1 20 5 23 22 5 24 -7 1 -30 1 -51 -1 -21 -1 -44 3 -51 9 -9
8 -22 8 -44 0 -26 -9 -34 -7 -52 11 l-21 21 35 14 c20 8 41 15 48 15 7 0 19 9
26 20 6 11 30 29 52 40 22 11 40 25 40 30 0 19 -53 24 -83 7 -32 -19 -72 -23
-62 -7 4 6 10 8 15 5 5 -3 12 0 15 5 4 6 18 15 32 21 13 5 23 15 20 22 -2 6 3
17 12 24 14 10 13 13 -9 21 -14 5 -29 6 -35 2 -5 -4 -23 -10 -40 -14 l-30 -6
28 15 c15 9 27 20 27 25 0 6 7 10 15 10 8 0 15 3 15 8 0 4 17 15 38 25 43 21
73 57 47 57 -19 0 -19 19 0 26 8 4 15 10 15 15 0 13 -27 11 -50 -3 -22 -14
-39 -3 -22 14 7 7 12 21 12 33 0 11 -4 16 -8 10 -4 -5 -14 -12 -22 -14 -52
-13 -55 -12 -27 6 15 10 26 25 25 33 -5 21 -37 25 -52 5 -7 -9 -19 -16 -27
-15 -7 1 -21 2 -29 1 -13 -1 -13 -2 0 -11 8 -5 10 -10 4 -10 -26 0 -21 17 22
67 40 46 43 53 23 51 -12 -2 -24 4 -27 12 -4 12 -2 13 9 4 11 -9 21 -7 44 7
28 17 28 19 8 19 -28 0 -29 4 -3 30 43 43 -4 47 -82 8 -21 -10 -38 -23 -38
-29 0 -6 -4 -8 -10 -4 -5 3 -6 13 -3 23 4 13 2 13 -10 -3 -9 -11 -17 -16 -17
-11 0 11 -40 -24 -40 -36 0 -4 7 -8 15 -8 8 0 15 7 15 15 0 8 7 15 15 15 18 0
20 -14 3 -28 -17 -12 -118 -22 -118 -11 0 5 7 9 15 9 8 0 15 4 15 10 0 5 6 7
14 4 9 -4 16 6 20 31 6 31 4 40 -13 52 -12 8 -21 20 -21 26 0 7 4 6 10 -3 9
-13 13 -12 30 8 11 13 24 21 30 17 6 -4 10 4 10 19 0 14 -6 26 -12 26 -17 0
-42 54 -28 58 18 6 11 22 -11 22 -17 0 -19 4 -13 22 4 13 12 27 19 33 27 24
85 123 90 155 6 32 5 33 -7 15 -62 -97 -154 -195 -184 -195 -8 0 -19 -10 -24
-22 -7 -17 -8 -11 -3 22 3 25 9 49 14 55 15 16 10 33 -12 40 -15 5 -29 -1 -53
-24 -18 -17 -37 -31 -44 -31 -6 0 -18 -13 -27 -30 -9 -16 -20 -30 -25 -30 -21
0 -18 20 10 55 17 21 30 43 30 50 0 6 9 20 20 30 21 19 36 77 25 95 -5 8 -14
6 -32 -5 -56 -37 -39 -1 62 130 44 57 -10 61 -56 3z m156 -1426 c-5 -4 -10
-16 -11 -28 0 -16 5 -20 23 -16 12 2 25 13 28 23 9 28 22 23 40 -13 8 -18 29
-49 45 -68 23 -27 32 -32 39 -21 6 10 13 11 29 2 11 -6 38 -11 60 -11 38 0
112 -24 112 -36 0 -4 -15 -3 -32 1 -18 4 -66 10 -106 14 -69 6 -73 6 -70 -13
2 -15 12 -21 38 -23 57 -5 55 -20 -4 -27 -55 -7 -57 -7 -90 28 -18 20 -38 36
-45 36 -6 0 -11 8 -12 18 0 9 -3 12 -6 5 -3 -9 -9 -8 -22 5 -40 38 -49 66 -42
122 0 6 9 10 19 10 9 0 13 -4 7 -8z m15 -232 c0 -5 -10 -12 -23 -15 -23 -6
-53 -42 -43 -53 3 -3 15 3 26 13 16 14 22 15 35 5 16 -13 21 -60 7 -60 -5 0
-13 -8 -18 -19 -5 -10 -35 -43 -67 -72 l-59 -52 3 69 c2 38 0 78 -4 89 -6 17
-1 23 26 34 24 10 28 15 15 18 -10 2 -18 8 -18 13 0 14 33 21 41 9 4 -8 12 -5
25 9 20 21 54 29 54 12z m238 -30 c26 0 41 -4 37 -10 -12 -19 26 -23 99 -10
65 11 76 10 107 -5 19 -10 42 -24 52 -33 9 -8 17 -12 17 -9 0 3 18 0 39 -8 22
-7 41 -11 44 -9 2 3 7 -2 10 -10 4 -9 2 -18 -2 -21 -5 -3 -12 2 -15 11 -10 25
-26 6 -26 -32 0 -27 -4 -34 -20 -34 -11 0 -20 7 -20 15 0 8 -9 19 -19 25 -16
8 -20 6 -23 -11 -3 -21 -4 -20 -31 5 -24 23 -47 33 -47 22 0 -1 11 -23 24 -48
13 -24 27 -54 30 -66 7 -20 5 -21 -19 -12 -18 7 -31 6 -44 -2 -15 -9 -22 -8
-34 4 -9 9 -14 18 -11 20 2 3 -5 13 -16 23 -28 25 -35 13 -16 -26 29 -57 13
-84 -20 -33 -13 18 -20 22 -28 14 -8 -8 -6 -15 7 -24 9 -7 17 -18 17 -25 0 -6
7 -11 15 -11 8 0 15 -4 15 -10 0 -16 -12 -12 -42 17 -22 21 -31 24 -40 15 -8
-8 -9 -12 -1 -12 23 0 133 -106 133 -127 0 -7 4 -13 10 -13 12 0 40 -53 40
-76 0 -13 -3 -14 -13 -5 -8 6 -16 8 -19 5 -4 -3 -9 8 -13 25 -4 17 -12 31 -19
31 -13 0 -14 -35 -1 -63 10 -24 -2 -35 -18 -15 -6 9 -25 18 -40 21 -24 4 -28
2 -24 -14 3 -11 1 -19 -4 -19 -5 0 -9 -11 -9 -25 0 -15 -8 -29 -22 -36 -32
-17 -48 -35 -48 -53 0 -21 -49 -21 -56 -1 -13 33 -22 12 -21 -47 l2 -63 -43
-13 c-47 -15 -66 -8 -83 33 -7 16 -9 13 -8 -15 1 -19 1 -39 0 -43 -2 -14 -29
18 -60 71 l-29 50 25 13 c20 11 26 11 32 0 6 -10 10 -9 14 3 8 20 -33 113 -62
141 -52 51 -98 77 -129 71 -15 -2 -46 -7 -70 -12 -26 -4 -48 -15 -55 -25 -21
-33 -43 -22 -38 18 1 6 -3 14 -8 18 -6 3 -8 12 -5 20 4 10 12 12 31 4 13 -5
30 -6 36 -2 21 13 131 12 147 -2 8 -7 28 -15 44 -18 l30 -5 -25 19 c-32 26
-64 39 -98 39 -22 0 -30 5 -33 24 -4 20 0 25 21 29 47 10 116 32 136 44 19 12
19 12 -5 14 -14 1 -28 1 -32 0 -20 -3 -3 23 48 71 58 55 126 98 156 98 22 0
13 27 -10 32 -13 3 -7 14 28 51 33 34 51 46 65 42 11 -2 39 -5 63 -5z m-721
-576 c4 -10 0 -20 -10 -26 -10 -5 -17 -18 -17 -29 0 -16 -5 -18 -25 -13 -19 5
-25 2 -25 -10 0 -10 9 -16 25 -16 14 0 26 -4 26 -10 1 -5 2 -14 3 -19 2 -17
15 -24 32 -17 16 6 15 8 -2 21 -17 13 -16 13 16 5 29 -8 37 -7 48 7 11 14 13
15 12 3 -4 -28 12 -61 26 -56 9 3 14 -2 14 -15 0 -18 28 -65 59 -98 14 -15 10
-66 -9 -115 -17 -46 -30 -29 -26 37 2 34 1 56 -1 49 -10 -27 -23 2 -17 39 4
21 3 39 -2 39 -5 0 -22 12 -37 26 l-27 25 1 -50 c1 -28 6 -51 11 -51 4 0 8 -8
8 -17 0 -14 -4 -12 -17 7 -9 13 -24 31 -34 41 -9 9 -19 23 -21 30 -4 9 -9 11
-15 4 -16 -15 -24 -63 -13 -70 6 -3 10 4 10 16 0 18 2 19 15 9 8 -7 15 -18 15
-24 0 -6 9 -29 21 -50 11 -21 19 -48 18 -60 -1 -11 1 -29 6 -39 4 -9 5 -29 2
-43 -3 -18 -1 -22 6 -15 24 24 48 -49 28 -87 -5 -9 -13 -26 -17 -37 -6 -18 -8
-18 -11 -2 -3 9 -8 15 -12 12 -14 -8 -21 67 -9 82 9 11 8 13 -2 11 -8 -2 -22
12 -31 30 -16 31 -18 32 -24 13 -14 -46 -38 -15 -39 50 0 26 -4 35 -13 32 -8
-3 -13 3 -13 17 0 12 -14 49 -31 81 -31 57 -33 83 -7 62 27 -23 53 -19 70 9
10 15 22 28 28 28 5 0 10 5 10 10 0 6 -9 10 -20 10 -11 0 -20 -7 -20 -15 0
-32 -18 -13 -31 33 -12 45 -13 45 -17 17 -5 -30 -5 -30 -11 -5 -5 16 0 39 13
65 11 22 19 48 18 57 -1 15 8 19 51 27 4 0 10 -6 14 -15z"/>
<path d="M1950 4525 c-19 -8 -43 -17 -52 -21 -10 -3 -18 -10 -18 -15 0 -5 -5
-9 -11 -9 -5 0 -7 5 -4 10 12 20 -12 9 -45 -20 -34 -30 -60 -39 -60 -20 0 6
-5 10 -12 10 -9 0 -9 -3 0 -12 7 -7 12 -15 12 -19 0 -7 -40 -22 -54 -20 -13 3
-56 -40 -56 -55 0 -7 -13 -15 -30 -19 -18 -4 -31 -13 -32 -23 -2 -32 -4 -37
-11 -49 -5 -7 -15 -13 -23 -13 -22 0 -45 -26 -38 -43 3 -8 -5 -23 -18 -33 -13
-11 -27 -27 -31 -36 -5 -14 -1 -18 19 -18 14 0 27 7 31 18 9 25 101 112 118
112 8 0 15 4 15 9 0 5 13 14 30 21 29 12 33 37 4 26 -15 -6 -18 3 -6 20 10 15
110 84 121 84 5 0 11 3 13 8 2 4 19 15 38 25 19 9 51 27 70 38 19 12 35 21 35
20 0 -8 45 15 49 25 7 17 -9 17 -54 -1z"/>
<path d="M4002 3260 c-6 -11 -12 -26 -12 -34 0 -7 -7 -27 -15 -42 -8 -16 -15
-36 -15 -44 -1 -22 -31 -55 -67 -74 -17 -8 -39 -23 -48 -32 -21 -21 -199 -34
-302 -23 -38 5 -126 8 -197 8 -124 1 -132 2 -195 33 -36 17 -67 35 -69 40 -2
4 -12 8 -23 8 -10 0 -19 4 -19 9 0 9 -8 12 -63 30 -21 7 -27 7 -24 -2 20 -46
35 -66 60 -80 15 -9 25 -21 22 -27 -4 -6 5 -10 19 -10 26 0 35 -14 16 -25 -6
-4 -7 -11 -4 -17 4 -6 2 -13 -4 -17 -9 -6 185 -7 228 -2 8 1 -1 9 -20 17 -32
15 -33 17 -14 24 12 5 41 7 65 5 24 -2 52 -4 61 -4 9 -1 19 -10 23 -20 4 -12
12 -18 20 -14 8 3 12 9 9 14 -7 12 23 12 45 -1 12 -6 31 -5 55 2 30 9 39 9 45
-1 5 -8 11 -9 15 -3 3 5 24 8 46 6 22 -2 40 0 40 5 0 4 27 8 60 9 49 1 64 -3
80 -20 11 -12 25 -18 35 -14 10 3 14 2 10 -5 -4 -6 2 -8 18 -4 17 5 26 2 30
-9 4 -10 18 -16 38 -16 22 0 32 -5 36 -20 6 -24 43 -27 43 -4 0 10 5 14 15 10
10 -3 15 -1 13 7 -6 26 37 62 87 74 78 17 179 45 194 52 8 4 17 13 19 20 3 9
-7 11 -39 6 -111 -16 -152 -12 -197 21 -23 17 -39 34 -36 37 4 4 -7 19 -25 34
-26 23 -31 35 -31 70 0 47 -8 54 -28 23z"/>
</g>
</svg>
